{"title":"Humne Jeena Seekh Liya 2012 NON RETAIL DVDRip Esubs (ICTV) - Hin","uid":8253486,"size":1209640082,"categoryP":"video","categoryS":"movies","magnet":"?xt=urn:btih:aa724ec3822a9c0f7333637576e579aae9d3607b&amp;dn=Humne+Jeena+Seekh+Liya+2012+NON+RETAIL+DVDRip+Esubs+%28ICTV%29+-+Hin&amp;tr=udp%3A%2F%2Ftracker.openbittorrent.com%3A80&amp;tr=udp%3A%2F%2Fopen.demonii.com%3A1337&amp;tr=udp%3A%2F%2Ftracker.coppersurfer.tk%3A6969&amp;tr=udp%3A%2F%2Fexodus.desync.com%3A6969","seeders":1,"leechers":0,"uploader":"SJonam","files":1,"time":1363206098,"description":" &lt;a href=&quot;http://desibbrg.org/images/66952052392581364616.gif&quot; rel=&quot;nofollow&quot; target=&quot;_NEW&quot;&gt;http://desibbrg.org/images/66952052392581364616.gif&lt;/a&gt;\n &lt;a href=&quot;\nhttp://desibbrg.org/images/21300623178288014989.jpg&quot; rel=&quot;nofollow&quot; target=&quot;_NEW&quot;&gt;\nhttp://desibbrg.org/images/21300623178288014989.jpg&lt;/a&gt;\n &lt;a href=&quot;\nhttp://desibbrg.org/images/44231006401416728773.png&quot; rel=&quot;nofollow&quot; target=&quot;_NEW&quot;&gt;\nhttp://desibbrg.org/images/44231006401416728773.png&lt;/a&gt;\n &lt;a href=&quot;\nhttp://desibbrg.org/images/67736321117829151639.png&quot; rel=&quot;nofollow&quot; target=&quot;_NEW&quot;&gt;\nhttp://desibbrg.org/images/67736321117829151639.png&lt;/a&gt;\n &lt;a href=&quot;\nhttp://desibbrg.org/images/13181931422185612245.png&quot; rel=&quot;nofollow&quot; target=&quot;_NEW&quot;&gt;\nhttp://desibbrg.org/images/13181931422185612245.png&lt;/a&gt;\n &lt;a href=&quot;\nhttp://desibbrg.org/images/59811031259290488284.png&quot; rel=&quot;nofollow&quot; target=&quot;_NEW&quot;&gt;\nhttp://desibbrg.org/images/59811031259290488284.png&lt;/a&gt;\n\nMedia Info - \nVideo\nID : 0\nFormat : MPEG-4 Visual\nFormat profile : Simple@L1\nFormat settings, BVOP : No\nFormat settings, QPel : No\nFormat settings, GMC : No warppoints\nFormat settings, Matrix : Default (H.263)\nCodec ID : DIVX\nCodec ID/Info : Project Mayo\nCodec ID/Hint : DivX 4\nDuration : 1h 38mn\nBit rate : 1 499 Kbps\nWidth : 1 360 pixels\nHeight : 762 pixels\nDisplay aspect ratio : 16:9\nFrame rate : 29.970 fps\nColor space : YUV\nChroma subsampling : 4:2:0\nBit depth : 8 bits\nScan type : Progressive\nCompression mode : Lossy\nBits/(Pixel*Frame) : 0.048\nStream size : 1.03 GiB (91%)\nWriting library : Lavc52.108.0\n\nAudio\nID : 1\nFormat : MPEG Audio\nFormat version : Version 1\nFormat profile : Layer 3\nMode : Joint stereo\nMode extension : MS Stereo\nCodec ID : 55\nCodec ID/Hint : MP3\nDuration : 1h 38mn\nBit rate mode : Constant\nBit rate : 128 Kbps\nChannel(s) : 2 channels\nSampling rate : 44.1 KHz\nCompression mode : Lossy\nStream size : 89.9 MiB (8%)\nAlignment : Aligned on interleaves\nInterleave, duration : 26 ms (0.78 video frame)\nInterleave, preload duration : 52 ms\nWriting library : LAME3.98.4\n\nRipper : black_pearl\n\nSeeding 24x7... Extreme Seeding...\n\n\nEnjoy!\n","torrent":{"xt":"urn:btih:aa724ec3822a9c0f7333637576e579aae9d3607b","amp;dn":"Humne+Jeena+Seekh+Liya+2012+NON+RETAIL+DVDRip+Esubs+%28ICTV%29+-+Hin","amp;tr":["udp%3A%2F%2Ftracker.openbittorrent.com%3A80","udp%3A%2F%2Fopen.demonii.com%3A1337","udp%3A%2F%2Ftracker.coppersurfer.tk%3A6969","udp%3A%2F%2Fexodus.desync.com%3A6969"],"infoHash":"aa724ec3822a9c0f7333637576e579aae9d3607b","infoHashBuffer":{"type":"Buffer","data":[170,114,78,195,130,42,156,15,115,51,99,117,118,229,121,170,233,211,96,123]},"announce":[],"urlList":[]}}